<svg xmlns="http://www.w3.org/2000/svg" viewBox="0 0 400 300" width="406" height="306" class="illustration styles_illustrationTablet__1DWOa"><g id="_16_files_and_folder_outline" data-name="#16_files_and_folder_outline"><polygon points="113.07 223.56 113.07 100.24 170.23 100.24 183.18 111.78 268.21 111.78 268.21 223.56 113.07 223.56" fill="#68e1fd"></polygon><path d="M268.21,224.56H113.07a1,1,0,0,1-1-1V100.24a1,1,0,0,1,1-1h57.16a1,1,0,0,1,.66.25l12.67,11.29h84.65a1,1,0,0,1,1,1V223.56A1,1,0,0,1,268.21,224.56Zm-154.14-2H267.21V112.78h-84a1,1,0,0,1-.67-.25l-12.66-11.29H114.07Z" fill="#093f68"></path><rect x="125.63" y="82.33" width="131.63" height="132.3" transform="translate(-13.1 18.64) rotate(-5.39)" fill="#ffbc0e"></rect><path d="M132.13,221.52a1,1,0,0,1-1-.9L118.71,88.9a1,1,0,0,1,.9-1.09L250.66,75.45a1,1,0,0,1,1.09.9l12.42,131.72a1,1,0,0,1-.22.73,1,1,0,0,1-.68.36l-131,12.36ZM120.79,89.71,133,219.43l129.06-12.17L249.85,77.53Z" fill="#093f68"></path><rect x="132.5" y="92.66" width="131.63" height="119.05" fill="#fff"></rect><path d="M264.13,212.72H132.5a1,1,0,0,1-1-1V92.66a1,1,0,0,1,1-1H264.13a1,1,0,0,1,1,1V211.72A1,1,0,0,1,264.13,212.72Zm-130.63-2H263.13V93.66H133.5Z" fill="#093f68"></path><path d="M248,109.63H221.66a1,1,0,1,1,0-2H248a1,1,0,1,1,0,2Z" fill="#70cc40"></path><path d="M248,122.25H150.09a1,1,0,0,1,0-2H248a1,1,0,1,1,0,2Z" fill="#70cc40"></path><path d="M248,134.87H150.09a1,1,0,0,1,0-2H248a1,1,0,1,1,0,2Z" fill="#70cc40"></path><path d="M248,147.5H150.09a1,1,0,0,1,0-2H248a1,1,0,1,1,0,2Z" fill="#70cc40"></path><polygon points="113.07 223.56 136.72 143.03 209.36 143.03 220.06 133.18 296.93 133.18 269.34 223.56 113.07 223.56" fill="#68e1fd"></polygon><path d="M269.34,224.56H113.07a1,1,0,0,1-.8-.4,1,1,0,0,1-.16-.88l23.65-80.53a1,1,0,0,1,1-.72H209l10.42-9.59a1,1,0,0,1,.67-.26h76.87a1,1,0,0,1,.8.4,1,1,0,0,1,.16.89l-27.6,90.38A1,1,0,0,1,269.34,224.56Zm-154.93-2H268.6l27-88.38H220.45L210,143.77a1,1,0,0,1-.68.26H137.47Z" fill="#093f68"></path><path d="M262.57,212.34h-32.1a1,1,0,0,1,0-2h32.1a1,1,0,0,1,0,2Z" fill="#f56132"></path><path d="M161.69,109.63h-11.6a1,1,0,0,1,0-2h11.6a1,1,0,0,1,0,2Z" fill="#70cc40"></path></g></svg>